<?xml version="1.0" standalone="no"?>
<svg xmlns:xlink="http://www.w3.org/1999/xlink" id="wave" style="transform:rotate(0deg); transition: 0.3s" viewBox="0 0 1440 340" version="1.1" xmlns="http://www.w3.org/2000/svg"><defs><linearGradient id="sw-gradient-0" x1="0" x2="0" y1="1" y2="0"><stop stop-color="rgba(243, 106, 62, 1)" offset="0%"/><stop stop-color="rgba(255, 179, 11, 1)" offset="100%"/></linearGradient></defs><path style="transform:translate(0, 0px); opacity:1" fill="url(#sw-gradient-0)" d="M0,306L40,272C80,238,160,170,240,158.7C320,147,400,193,480,192.7C560,193,640,147,720,147.3C800,147,880,193,960,221C1040,249,1120,261,1200,221C1280,181,1360,91,1440,90.7C1520,91,1600,181,1680,215.3C1760,249,1840,227,1920,192.7C2000,159,2080,113,2160,113.3C2240,113,2320,159,2400,198.3C2480,238,2560,272,2640,289C2720,306,2800,306,2880,260.7C2960,215,3040,125,3120,107.7C3200,91,3280,147,3360,141.7C3440,136,3520,68,3600,79.3C3680,91,3760,181,3840,215.3C3920,249,4000,227,4080,198.3C4160,170,4240,136,4320,147.3C4400,159,4480,215,4560,249.3C4640,283,4720,295,4800,266.3C4880,238,4960,170,5040,164.3C5120,159,5200,215,5280,215.3C5360,215,5440,159,5520,124.7C5600,91,5680,79,5720,73.7L5760,68L5760,340L5720,340C5680,340,5600,340,5520,340C5440,340,5360,340,5280,340C5200,340,5120,340,5040,340C4960,340,4880,340,4800,340C4720,340,4640,340,4560,340C4480,340,4400,340,4320,340C4240,340,4160,340,4080,340C4000,340,3920,340,3840,340C3760,340,3680,340,3600,340C3520,340,3440,340,3360,340C3280,340,3200,340,3120,340C3040,340,2960,340,2880,340C2800,340,2720,340,2640,340C2560,340,2480,340,2400,340C2320,340,2240,340,2160,340C2080,340,2000,340,1920,340C1840,340,1760,340,1680,340C1600,340,1520,340,1440,340C1360,340,1280,340,1200,340C1120,340,1040,340,960,340C880,340,800,340,720,340C640,340,560,340,480,340C400,340,320,340,240,340C160,340,80,340,40,340L0,340Z"/><defs><linearGradient id="sw-gradient-1" x1="0" x2="0" y1="1" y2="0"><stop stop-color="rgba(243, 106, 62, 1)" offset="0%"/><stop stop-color="rgba(255, 179, 11, 1)" offset="100%"/></linearGradient></defs><path style="transform:translate(0, 50px); opacity:0.9" fill="url(#sw-gradient-1)" d="M0,238L40,243.7C80,249,160,261,240,266.3C320,272,400,272,480,249.3C560,227,640,181,720,147.3C800,113,880,91,960,68C1040,45,1120,23,1200,56.7C1280,91,1360,181,1440,187C1520,193,1600,113,1680,85C1760,57,1840,79,1920,124.7C2000,170,2080,238,2160,249.3C2240,261,2320,215,2400,198.3C2480,181,2560,193,2640,175.7C2720,159,2800,113,2880,79.3C2960,45,3040,23,3120,11.3C3200,0,3280,0,3360,5.7C3440,11,3520,23,3600,51C3680,79,3760,125,3840,170C3920,215,4000,261,4080,266.3C4160,272,4240,238,4320,209.7C4400,181,4480,159,4560,141.7C4640,125,4720,113,4800,113.3C4880,113,4960,125,5040,113.3C5120,102,5200,68,5280,45.3C5360,23,5440,11,5520,51C5600,91,5680,181,5720,226.7L5760,272L5760,340L5720,340C5680,340,5600,340,5520,340C5440,340,5360,340,5280,340C5200,340,5120,340,5040,340C4960,340,4880,340,4800,340C4720,340,4640,340,4560,340C4480,340,4400,340,4320,340C4240,340,4160,340,4080,340C4000,340,3920,340,3840,340C3760,340,3680,340,3600,340C3520,340,3440,340,3360,340C3280,340,3200,340,3120,340C3040,340,2960,340,2880,340C2800,340,2720,340,2640,340C2560,340,2480,340,2400,340C2320,340,2240,340,2160,340C2080,340,2000,340,1920,340C1840,340,1760,340,1680,340C1600,340,1520,340,1440,340C1360,340,1280,340,1200,340C1120,340,1040,340,960,340C880,340,800,340,720,340C640,340,560,340,480,340C400,340,320,340,240,340C160,340,80,340,40,340L0,340Z"/><defs><linearGradient id="sw-gradient-2" x1="0" x2="0" y1="1" y2="0"><stop stop-color="rgba(243, 106, 62, 1)" offset="0%"/><stop stop-color="rgba(255, 179, 11, 1)" offset="100%"/></linearGradient></defs><path style="transform:translate(0, 100px); opacity:0.8" fill="url(#sw-gradient-2)" d="M0,136L40,147.3C80,159,160,181,240,164.3C320,147,400,91,480,107.7C560,125,640,215,720,232.3C800,249,880,193,960,192.7C1040,193,1120,249,1200,232.3C1280,215,1360,125,1440,85C1520,45,1600,57,1680,73.7C1760,91,1840,113,1920,136C2000,159,2080,181,2160,164.3C2240,147,2320,91,2400,73.7C2480,57,2560,79,2640,119C2720,159,2800,215,2880,209.7C2960,204,3040,136,3120,96.3C3200,57,3280,45,3360,45.3C3440,45,3520,57,3600,68C3680,79,3760,91,3840,102C3920,113,4000,125,4080,130.3C4160,136,4240,136,4320,164.3C4400,193,4480,249,4560,232.3C4640,215,4720,125,4800,119C4880,113,4960,193,5040,187C5120,181,5200,91,5280,51C5360,11,5440,23,5520,62.3C5600,102,5680,170,5720,204L5760,238L5760,340L5720,340C5680,340,5600,340,5520,340C5440,340,5360,340,5280,340C5200,340,5120,340,5040,340C4960,340,4880,340,4800,340C4720,340,4640,340,4560,340C4480,340,4400,340,4320,340C4240,340,4160,340,4080,340C4000,340,3920,340,3840,340C3760,340,3680,340,3600,340C3520,340,3440,340,3360,340C3280,340,3200,340,3120,340C3040,340,2960,340,2880,340C2800,340,2720,340,2640,340C2560,340,2480,340,2400,340C2320,340,2240,340,2160,340C2080,340,2000,340,1920,340C1840,340,1760,340,1680,340C1600,340,1520,340,1440,340C1360,340,1280,340,1200,340C1120,340,1040,340,960,340C880,340,800,340,720,340C640,340,560,340,480,340C400,340,320,340,240,340C160,340,80,340,40,340L0,340Z"/><defs><linearGradient id="sw-gradient-3" x1="0" x2="0" y1="1" y2="0"><stop stop-color="rgba(243, 106, 62, 1)" offset="0%"/><stop stop-color="rgba(255, 179, 11, 1)" offset="100%"/></linearGradient></defs><path style="transform:translate(0, 150px); opacity:0.7" fill="url(#sw-gradient-3)" d="M0,170L40,141.7C80,113,160,57,240,62.3C320,68,400,136,480,147.3C560,159,640,113,720,85C800,57,880,45,960,85C1040,125,1120,215,1200,260.7C1280,306,1360,306,1440,306C1520,306,1600,306,1680,255C1760,204,1840,102,1920,102C2000,102,2080,204,2160,209.7C2240,215,2320,125,2400,90.7C2480,57,2560,79,2640,119C2720,159,2800,215,2880,215.3C2960,215,3040,159,3120,119C3200,79,3280,57,3360,51C3440,45,3520,57,3600,79.3C3680,102,3760,136,3840,141.7C3920,147,4000,125,4080,119C4160,113,4240,125,4320,107.7C4400,91,4480,45,4560,22.7C4640,0,4720,0,4800,34C4880,68,4960,136,5040,181.3C5120,227,5200,249,5280,260.7C5360,272,5440,272,5520,249.3C5600,227,5680,181,5720,158.7L5760,136L5760,340L5720,340C5680,340,5600,340,5520,340C5440,340,5360,340,5280,340C5200,340,5120,340,5040,340C4960,340,4880,340,4800,340C4720,340,4640,340,4560,340C4480,340,4400,340,4320,340C4240,340,4160,340,4080,340C4000,340,3920,340,3840,340C3760,340,3680,340,3600,340C3520,340,3440,340,3360,340C3280,340,3200,340,3120,340C3040,340,2960,340,2880,340C2800,340,2720,340,2640,340C2560,340,2480,340,2400,340C2320,340,2240,340,2160,340C2080,340,2000,340,1920,340C1840,340,1760,340,1680,340C1600,340,1520,340,1440,340C1360,340,1280,340,1200,340C1120,340,1040,340,960,340C880,340,800,340,720,340C640,340,560,340,480,340C400,340,320,340,240,340C160,340,80,340,40,340L0,340Z"/></svg>